<svg width="21" height="20" viewBox="0 0 21 20" fill="none" xmlns="http://www.w3.org/2000/svg">
<path d="M9.05798 3.5L9.22875 3.13829C9.03609 3.04733 8.80594 3.12334 8.70536 3.31116L9.05798 3.5ZM16.2638 11.6662L16.6188 11.8506C16.6778 11.7369 16.6788 11.6017 16.6215 11.4871L16.2638 11.6662ZM9.74117 16.5L9.61002 16.8779C9.68059 16.9024 9.75661 16.9066 9.82947 16.8901L9.74117 16.5ZM6.77634 15.471L6.42189 15.6564C6.46909 15.7467 6.54896 15.8155 6.64519 15.8489L6.77634 15.471ZM4.7362 11.5699L4.38359 11.381C4.32107 11.4978 4.32038 11.6379 4.38175 11.7552L4.7362 11.5699ZM13.1416 12.9137L13.4319 13.1889C13.5125 13.1039 13.5518 12.9879 13.5394 12.8714L13.1416 12.9137ZM12.727 9.01276L12.9671 8.6928C12.9329 8.66713 12.8947 8.64711 12.8542 8.63351L12.727 9.01276ZM14.5012 15.0592L14.1462 14.8748L14.5012 15.0592ZM13.8346 15.5735L13.7463 15.1834L13.8346 15.5735ZM13.2963 5.73714L13.654 5.55811L13.2963 5.73714ZM8.8872 3.86171L12.6582 5.64214L12.9998 4.91871L9.22875 3.13829L8.8872 3.86171ZM12.9386 5.91616L15.9061 11.8452L16.6215 11.4871L13.654 5.55811L12.9386 5.91616ZM15.9088 11.4818L14.1462 14.8748L14.8562 15.2435L16.6188 11.8506L15.9088 11.4818ZM13.7463 15.1834L9.65287 16.1099L9.82947 16.8901L13.9229 15.9636L13.7463 15.1834ZM7.1308 15.2857L5.09066 11.3845L4.38175 11.7552L6.42189 15.6564L7.1308 15.2857ZM5.08882 11.7587L9.41059 3.68884L8.70536 3.31116L4.38359 11.381L5.08882 11.7587ZM4.8307 11.9586L8.74065 11.0079L8.55166 10.2306L4.6417 11.1812L4.8307 11.9586ZM8.99432 10.8162L10.4087 8.31562L9.71233 7.92177L8.29799 10.4223L8.99432 10.8162ZM10.4514 8.03385L9.44887 3.41515L8.66708 3.58485L9.6696 8.20354L10.4514 8.03385ZM9.87232 16.1221L6.90749 15.0931L6.64519 15.8489L9.61002 16.8779L9.87232 16.1221ZM6.96636 15.823L10.8475 13.7278L10.4674 13.0239L6.58633 15.119L6.96636 15.823ZM10.9806 13.1401L8.96928 10.3835L8.32302 10.855L10.3343 13.6116L10.9806 13.1401ZM10.0314 16.7752L13.4319 13.1889L12.8513 12.6385L9.45091 16.2248L10.0314 16.7752ZM16.5038 11.3462L12.9671 8.6928L12.487 9.33273L16.0237 11.9861L16.5038 11.3462ZM12.8542 8.63351L10.1877 7.73945L9.93334 8.49795L12.5999 9.39201L12.8542 8.63351ZM13.5394 12.8714L13.1248 8.97049L12.3293 9.05504L12.7439 12.956L13.5394 12.8714ZM10.7306 13.7691L13.2148 13.3069L13.0685 12.5204L10.5843 12.9826L10.7306 13.7691ZM14.1462 14.8748C14.0648 15.0315 13.9185 15.1444 13.7463 15.1834L13.9229 15.9636C14.3248 15.8727 14.6662 15.6092 14.8562 15.2435L14.1462 14.8748ZM12.6582 5.64214C12.7798 5.69951 12.8785 5.796 12.9386 5.91616L13.654 5.55811C13.5137 5.27773 13.2833 5.05257 12.9998 4.91871L12.6582 5.64214Z" fill="black"/>
</svg>
