<svg width="24" height="24" viewBox="0 0 24 24" fill="none" xmlns="http://www.w3.org/2000/svg">
<path d="M19.3536 18.6464C19.1583 18.4512 18.8417 18.4512 18.6464 18.6464C18.4512 18.8417 18.4512 19.1583 18.6464 19.3536L19.3536 18.6464ZM21.6464 22.3536C21.8417 22.5488 22.1583 22.5488 22.3536 22.3536C22.5488 22.1583 22.5488 21.8417 22.3536 21.6464L21.6464 22.3536ZM10 19C10.2761 19 10.5 18.7761 10.5 18.5C10.5 18.2239 10.2761 18 10 18V19ZM20 10C20 10.2761 20.2239 10.5 20.5 10.5C20.7761 10.5 21 10.2761 21 10H20ZM7 9C6.72386 9 6.5 9.22386 6.5 9.5C6.5 9.77614 6.72386 10 7 10V9ZM16 10C16.2761 10 16.5 9.77614 16.5 9.5C16.5 9.22386 16.2761 9 16 9V10ZM7 13C6.72386 13 6.5 13.2239 6.5 13.5C6.5 13.7761 6.72386 14 7 14V13ZM10 14C10.2761 14 10.5 13.7761 10.5 13.5C10.5 13.2239 10.2761 13 10 13V14ZM18.6464 19.3536L21.6464 22.3536L22.3536 21.6464L19.3536 18.6464L18.6464 19.3536ZM5.5 6H18.5V5H5.5V6ZM5.5 19H10V18H5.5V19ZM3 7.5V16.5H4V7.5H3ZM20 7.5V10H21V7.5H20ZM7 10H16V9H7V10ZM7 14H10V13H7V14ZM5.5 18C4.67157 18 4 17.3284 4 16.5H3C3 17.8807 4.11929 19 5.5 19V18ZM18.5 6C19.3284 6 20 6.67157 20 7.5H21C21 6.11929 19.8807 5 18.5 5V6ZM5.5 5C4.11929 5 3 6.11929 3 7.5H4C4 6.67157 4.67157 6 5.5 6V5ZM20.5 16.5C20.5 14.2909 18.7091 12.5 16.5 12.5V13.5C18.1569 13.5 19.5 14.8431 19.5 16.5H20.5ZM16.5 20.5C18.7091 20.5 20.5 18.7091 20.5 16.5H19.5C19.5 18.1569 18.1569 19.5 16.5 19.5V20.5ZM12.5 16.5C12.5 18.7091 14.2909 20.5 16.5 20.5V19.5C14.8431 19.5 13.5 18.1569 13.5 16.5H12.5ZM13.5 16.5C13.5 14.8431 14.8431 13.5 16.5 13.5V12.5C14.2909 12.5 12.5 14.2909 12.5 16.5H13.5Z" fill="black"/>
</svg>
